# xmcd
#
# Track frame offsets: 
#        150
#        22455
#        44482
#        58796
#        80844
#        96527
#        109883
#        127810
#        139531
#        169926
#        185473
#        204332
#        214030
#        236455
#        254855
#        274445
#        288610
#        305301
#
# Disc length: 4345 seconds
#
# Revision: 3
# Processed by: cddbd v1.5.1PL0 Copyright (c) Steve Scherf et al.
# Submitted via: ExactAudioCopy v0.95a3
#
DISCID=2010f712
DTITLE=Песняры - GRAND Collection
DYEAR=2001
DGENRE=Country
TTITLE0=Беловежская Пуща
TTITLE1=Красная Роза
TTITLE2=До Третьих Петухов
TTITLE3=Я Не Могу Иначе
TTITLE4=Вологда
TTITLE5=Рушники
TTITLE6=За Полчаса До Весны
TTITLE7=Конь Невзнузданный
TTITLE8=Александрина
TTITLE9=Поцелуй
TTITLE10=Машенька
TTITLE11=На Что Бабе Огород
TTITLE12=Сережки
TTITLE13=Березовый Сок
TTITLE14=Олеся
TTITLE15=Я Поставил Коника
TTITLE16=Косил Ясь Конюшину
TTITLE17=Дрозды
EXTD=
EXTT0=
EXTT1=
EXTT2=
EXTT3=
EXTT4=
EXTT5=
EXTT6=
EXTT7=
EXTT8=
EXTT9=
EXTT10=
EXTT11=
EXTT12=
EXTT13=
EXTT14=
EXTT15=
EXTT16=
EXTT17=
PLAYORDER=
